{
	"patcher" : 	{
		"fileversion" : 1,
		"rect" : [ 3.0, 44.0, 640.0, 352.0 ],
		"bglocked" : 0,
		"defrect" : [ 3.0, 44.0, 640.0, 352.0 ],
		"openrect" : [ 0.0, 0.0, 0.0, 0.0 ],
		"openinpresentation" : 0,
		"default_fontsize" : 12.0,
		"default_fontface" : 0,
		"default_fontname" : "Arial",
		"gridonopen" : 0,
		"gridsize" : [ 15.0, 15.0 ],
		"gridsnaponopen" : 0,
		"toolbarvisible" : 1,
		"boxanimatetime" : 200,
		"imprint" : 0,
		"enablehscroll" : 1,
		"enablevscroll" : 1,
		"devicewidth" : 0.0,
		"boxes" : [ 			{
				"box" : 				{
					"maxclass" : "message",
					"text" : "10",
					"numinlets" : 2,
					"fontname" : "Arial",
					"numoutlets" : 1,
					"patching_rect" : [ 410.0, 113.0, 32.5, 18.0 ],
					"id" : "obj-26",
					"outlettype" : [ "" ],
					"fontsize" : 12.0
				}

			}
, 			{
				"box" : 				{
					"maxclass" : "message",
					"text" : "9",
					"numinlets" : 2,
					"fontname" : "Arial",
					"numoutlets" : 1,
					"patching_rect" : [ 377.0, 113.0, 32.5, 18.0 ],
					"id" : "obj-27",
					"outlettype" : [ "" ],
					"fontsize" : 12.0
				}

			}
, 			{
				"box" : 				{
					"maxclass" : "newobj",
					"text" : "t i b",
					"numinlets" : 1,
					"fontname" : "Arial",
					"numoutlets" : 2,
					"patching_rect" : [ 396.0, 86.0, 32.5, 20.0 ],
					"id" : "obj-28",
					"outlettype" : [ "int", "bang" ],
					"fontsize" : 12.0
				}

			}
, 			{
				"box" : 				{
					"maxclass" : "newobj",
					"text" : "t i b",
					"numinlets" : 1,
					"fontname" : "Arial",
					"numoutlets" : 2,
					"patching_rect" : [ 363.0, 86.0, 32.5, 20.0 ],
					"id" : "obj-29",
					"outlettype" : [ "int", "bang" ],
					"fontsize" : 12.0
				}

			}
, 			{
				"box" : 				{
					"maxclass" : "message",
					"text" : "8",
					"numinlets" : 2,
					"fontname" : "Arial",
					"numoutlets" : 1,
					"patching_rect" : [ 344.0, 113.0, 32.5, 18.0 ],
					"id" : "obj-30",
					"outlettype" : [ "" ],
					"fontsize" : 12.0
				}

			}
, 			{
				"box" : 				{
					"maxclass" : "newobj",
					"text" : "t i b",
					"numinlets" : 1,
					"fontname" : "Arial",
					"numoutlets" : 2,
					"patching_rect" : [ 330.0, 87.0, 32.5, 20.0 ],
					"id" : "obj-31",
					"outlettype" : [ "int", "bang" ],
					"fontsize" : 12.0
				}

			}
, 			{
				"box" : 				{
					"maxclass" : "newobj",
					"text" : "route /play /stop /vol",
					"numinlets" : 1,
					"fontname" : "Arial",
					"numoutlets" : 4,
					"patching_rect" : [ 330.0, 61.0, 118.0, 20.0 ],
					"id" : "obj-32",
					"outlettype" : [ "", "", "", "" ],
					"fontsize" : 12.0
				}

			}
, 			{
				"box" : 				{
					"maxclass" : "message",
					"text" : "7",
					"numinlets" : 2,
					"fontname" : "Arial",
					"numoutlets" : 1,
					"patching_rect" : [ 280.0, 112.0, 32.5, 18.0 ],
					"id" : "obj-14",
					"outlettype" : [ "" ],
					"fontsize" : 12.0
				}

			}
, 			{
				"box" : 				{
					"maxclass" : "message",
					"text" : "6",
					"numinlets" : 2,
					"fontname" : "Arial",
					"numoutlets" : 1,
					"patching_rect" : [ 247.0, 112.0, 32.5, 18.0 ],
					"id" : "obj-18",
					"outlettype" : [ "" ],
					"fontsize" : 12.0
				}

			}
, 			{
				"box" : 				{
					"maxclass" : "newobj",
					"text" : "t i b",
					"numinlets" : 1,
					"fontname" : "Arial",
					"numoutlets" : 2,
					"patching_rect" : [ 266.0, 85.0, 32.5, 20.0 ],
					"id" : "obj-20",
					"outlettype" : [ "int", "bang" ],
					"fontsize" : 12.0
				}

			}
, 			{
				"box" : 				{
					"maxclass" : "newobj",
					"text" : "t i b",
					"numinlets" : 1,
					"fontname" : "Arial",
					"numoutlets" : 2,
					"patching_rect" : [ 233.0, 85.0, 32.5, 20.0 ],
					"id" : "obj-22",
					"outlettype" : [ "int", "bang" ],
					"fontsize" : 12.0
				}

			}
, 			{
				"box" : 				{
					"maxclass" : "message",
					"text" : "5",
					"numinlets" : 2,
					"fontname" : "Arial",
					"numoutlets" : 1,
					"patching_rect" : [ 214.0, 112.0, 32.5, 18.0 ],
					"id" : "obj-23",
					"outlettype" : [ "" ],
					"fontsize" : 12.0
				}

			}
, 			{
				"box" : 				{
					"maxclass" : "newobj",
					"text" : "t i b",
					"numinlets" : 1,
					"fontname" : "Arial",
					"numoutlets" : 2,
					"patching_rect" : [ 200.0, 86.0, 32.5, 20.0 ],
					"id" : "obj-24",
					"outlettype" : [ "int", "bang" ],
					"fontsize" : 12.0
				}

			}
, 			{
				"box" : 				{
					"maxclass" : "newobj",
					"text" : "route /play /stop /vol",
					"numinlets" : 1,
					"fontname" : "Arial",
					"numoutlets" : 4,
					"patching_rect" : [ 200.0, 60.0, 118.0, 20.0 ],
					"id" : "obj-25",
					"outlettype" : [ "", "", "", "" ],
					"fontsize" : 12.0
				}

			}
, 			{
				"box" : 				{
					"maxclass" : "message",
					"text" : "4",
					"numinlets" : 2,
					"fontname" : "Arial",
					"numoutlets" : 1,
					"patching_rect" : [ 149.0, 112.0, 32.5, 18.0 ],
					"id" : "obj-21",
					"outlettype" : [ "" ],
					"fontsize" : 12.0
				}

			}
, 			{
				"box" : 				{
					"maxclass" : "message",
					"text" : "3",
					"numinlets" : 2,
					"fontname" : "Arial",
					"numoutlets" : 1,
					"patching_rect" : [ 116.0, 112.0, 32.5, 18.0 ],
					"id" : "obj-19",
					"outlettype" : [ "" ],
					"fontsize" : 12.0
				}

			}
, 			{
				"box" : 				{
					"maxclass" : "newobj",
					"text" : "t i b",
					"numinlets" : 1,
					"fontname" : "Arial",
					"numoutlets" : 2,
					"patching_rect" : [ 135.0, 85.0, 32.5, 20.0 ],
					"id" : "obj-17",
					"outlettype" : [ "int", "bang" ],
					"fontsize" : 12.0
				}

			}
, 			{
				"box" : 				{
					"maxclass" : "newobj",
					"text" : "t i b",
					"numinlets" : 1,
					"fontname" : "Arial",
					"numoutlets" : 2,
					"patching_rect" : [ 102.0, 85.0, 32.5, 20.0 ],
					"id" : "obj-16",
					"outlettype" : [ "int", "bang" ],
					"fontsize" : 12.0
				}

			}
, 			{
				"box" : 				{
					"maxclass" : "message",
					"text" : "2",
					"numinlets" : 2,
					"fontname" : "Arial",
					"numoutlets" : 1,
					"patching_rect" : [ 83.0, 112.0, 32.5, 18.0 ],
					"id" : "obj-15",
					"outlettype" : [ "" ],
					"fontsize" : 12.0
				}

			}
, 			{
				"box" : 				{
					"maxclass" : "newobj",
					"text" : "t i b",
					"numinlets" : 1,
					"fontname" : "Arial",
					"numoutlets" : 2,
					"patching_rect" : [ 69.0, 86.0, 32.5, 20.0 ],
					"id" : "obj-13",
					"outlettype" : [ "int", "bang" ],
					"fontsize" : 12.0
				}

			}
, 			{
				"box" : 				{
					"maxclass" : "newobj",
					"text" : "route /play /stop /vol",
					"numinlets" : 1,
					"fontname" : "Arial",
					"numoutlets" : 4,
					"patching_rect" : [ 69.0, 60.0, 118.0, 20.0 ],
					"id" : "obj-4",
					"outlettype" : [ "", "", "", "" ],
					"fontsize" : 12.0
				}

			}
, 			{
				"box" : 				{
					"maxclass" : "message",
					"text" : "1",
					"numinlets" : 2,
					"fontname" : "Arial",
					"numoutlets" : 1,
					"patching_rect" : [ 16.0, 81.0, 32.5, 18.0 ],
					"id" : "obj-9",
					"outlettype" : [ "" ],
					"fontsize" : 12.0
				}

			}
, 			{
				"box" : 				{
					"maxclass" : "newobj",
					"text" : "t i b",
					"numinlets" : 1,
					"fontname" : "Arial",
					"numoutlets" : 2,
					"patching_rect" : [ 2.0, 55.0, 32.5, 20.0 ],
					"id" : "obj-6",
					"outlettype" : [ "int", "bang" ],
					"fontsize" : 12.0
				}

			}
, 			{
				"box" : 				{
					"maxclass" : "newobj",
					"text" : "ctlout",
					"numinlets" : 3,
					"fontname" : "Arial",
					"numoutlets" : 0,
					"patching_rect" : [ 300.0, 319.0, 46.0, 20.0 ],
					"id" : "obj-3",
					"fontsize" : 12.0
				}

			}
, 			{
				"box" : 				{
					"maxclass" : "newobj",
					"text" : "route /tempo /track1 /track2 /track3 /track4 /track5 /track6 /track7 /track8 /track9 /track10",
					"numinlets" : 1,
					"fontname" : "Arial",
					"numoutlets" : 12,
					"patching_rect" : [ 2.0, 29.0, 478.0, 20.0 ],
					"id" : "obj-11",
					"outlettype" : [ "", "", "", "", "", "", "", "", "", "", "", "" ],
					"fontsize" : 12.0
				}

			}
, 			{
				"box" : 				{
					"maxclass" : "newobj",
					"text" : "mxj net.udp.recv @port 20000",
					"numinlets" : 1,
					"fontname" : "Arial",
					"numoutlets" : 2,
					"patching_rect" : [ 2.0, 6.0, 171.0, 20.0 ],
					"id" : "obj-7",
					"outlettype" : [ "", "" ],
					"fontsize" : 12.0
				}

			}
 ],
		"lines" : [ 			{
				"patchline" : 				{
					"source" : [ "obj-26", 0 ],
					"destination" : [ "obj-3", 1 ],
					"hidden" : 0,
					"midpoints" : [ 419.5, 305.5, 323.0, 305.5 ]
				}

			}
, 			{
				"patchline" : 				{
					"source" : [ "obj-27", 0 ],
					"destination" : [ "obj-3", 1 ],
					"hidden" : 0,
					"midpoints" : [ 386.5, 305.5, 323.0, 305.5 ]
				}

			}
, 			{
				"patchline" : 				{
					"source" : [ "obj-30", 0 ],
					"destination" : [ "obj-3", 1 ],
					"hidden" : 0,
					"midpoints" : [ 353.5, 305.5, 323.0, 305.5 ]
				}

			}
, 			{
				"patchline" : 				{
					"source" : [ "obj-14", 0 ],
					"destination" : [ "obj-3", 1 ],
					"hidden" : 0,
					"midpoints" : [ 289.5, 305.0, 323.0, 305.0 ]
				}

			}
, 			{
				"patchline" : 				{
					"source" : [ "obj-18", 0 ],
					"destination" : [ "obj-3", 1 ],
					"hidden" : 0,
					"midpoints" : [ 256.5, 305.0, 323.0, 305.0 ]
				}

			}
, 			{
				"patchline" : 				{
					"source" : [ "obj-23", 0 ],
					"destination" : [ "obj-3", 1 ],
					"hidden" : 0,
					"midpoints" : [ 223.5, 305.0, 323.0, 305.0 ]
				}

			}
, 			{
				"patchline" : 				{
					"source" : [ "obj-28", 0 ],
					"destination" : [ "obj-3", 0 ],
					"hidden" : 0,
					"midpoints" : [ 405.5, 313.0, 309.5, 313.0 ]
				}

			}
, 			{
				"patchline" : 				{
					"source" : [ "obj-29", 0 ],
					"destination" : [ "obj-3", 0 ],
					"hidden" : 0,
					"midpoints" : [ 372.5, 313.0, 309.5, 313.0 ]
				}

			}
, 			{
				"patchline" : 				{
					"source" : [ "obj-31", 0 ],
					"destination" : [ "obj-3", 0 ],
					"hidden" : 0,
					"midpoints" : [ 339.5, 313.5, 309.5, 313.5 ]
				}

			}
, 			{
				"patchline" : 				{
					"source" : [ "obj-20", 0 ],
					"destination" : [ "obj-3", 0 ],
					"hidden" : 0,
					"midpoints" : [ 275.5, 313.5, 309.5, 313.5 ]
				}

			}
, 			{
				"patchline" : 				{
					"source" : [ "obj-22", 0 ],
					"destination" : [ "obj-3", 0 ],
					"hidden" : 0,
					"midpoints" : [ 242.5, 313.5, 309.5, 313.5 ]
				}

			}
, 			{
				"patchline" : 				{
					"source" : [ "obj-24", 0 ],
					"destination" : [ "obj-3", 0 ],
					"hidden" : 0,
					"midpoints" : [ 209.5, 313.0, 309.5, 313.0 ]
				}

			}
, 			{
				"patchline" : 				{
					"source" : [ "obj-11", 3 ],
					"destination" : [ "obj-32", 0 ],
					"hidden" : 0,
					"midpoints" : [ 136.681824, 54.5, 339.5, 54.5 ]
				}

			}
, 			{
				"patchline" : 				{
					"source" : [ "obj-11", 2 ],
					"destination" : [ "obj-25", 0 ],
					"hidden" : 0,
					"midpoints" : [ 94.954544, 54.0, 209.5, 54.0 ]
				}

			}
, 			{
				"patchline" : 				{
					"source" : [ "obj-32", 0 ],
					"destination" : [ "obj-31", 0 ],
					"hidden" : 0,
					"midpoints" : [  ]
				}

			}
, 			{
				"patchline" : 				{
					"source" : [ "obj-31", 1 ],
					"destination" : [ "obj-30", 0 ],
					"hidden" : 0,
					"midpoints" : [  ]
				}

			}
, 			{
				"patchline" : 				{
					"source" : [ "obj-32", 1 ],
					"destination" : [ "obj-29", 0 ],
					"hidden" : 0,
					"midpoints" : [  ]
				}

			}
, 			{
				"patchline" : 				{
					"source" : [ "obj-32", 2 ],
					"destination" : [ "obj-28", 0 ],
					"hidden" : 0,
					"midpoints" : [  ]
				}

			}
, 			{
				"patchline" : 				{
					"source" : [ "obj-29", 1 ],
					"destination" : [ "obj-27", 0 ],
					"hidden" : 0,
					"midpoints" : [  ]
				}

			}
, 			{
				"patchline" : 				{
					"source" : [ "obj-28", 1 ],
					"destination" : [ "obj-26", 0 ],
					"hidden" : 0,
					"midpoints" : [  ]
				}

			}
, 			{
				"patchline" : 				{
					"source" : [ "obj-20", 1 ],
					"destination" : [ "obj-14", 0 ],
					"hidden" : 0,
					"midpoints" : [  ]
				}

			}
, 			{
				"patchline" : 				{
					"source" : [ "obj-22", 1 ],
					"destination" : [ "obj-18", 0 ],
					"hidden" : 0,
					"midpoints" : [  ]
				}

			}
, 			{
				"patchline" : 				{
					"source" : [ "obj-25", 2 ],
					"destination" : [ "obj-20", 0 ],
					"hidden" : 0,
					"midpoints" : [  ]
				}

			}
, 			{
				"patchline" : 				{
					"source" : [ "obj-25", 1 ],
					"destination" : [ "obj-22", 0 ],
					"hidden" : 0,
					"midpoints" : [  ]
				}

			}
, 			{
				"patchline" : 				{
					"source" : [ "obj-24", 1 ],
					"destination" : [ "obj-23", 0 ],
					"hidden" : 0,
					"midpoints" : [  ]
				}

			}
, 			{
				"patchline" : 				{
					"source" : [ "obj-25", 0 ],
					"destination" : [ "obj-24", 0 ],
					"hidden" : 0,
					"midpoints" : [  ]
				}

			}
, 			{
				"patchline" : 				{
					"source" : [ "obj-9", 0 ],
					"destination" : [ "obj-3", 1 ],
					"hidden" : 0,
					"midpoints" : [ 25.5, 305.0, 323.0, 305.0 ]
				}

			}
, 			{
				"patchline" : 				{
					"source" : [ "obj-6", 0 ],
					"destination" : [ "obj-3", 0 ],
					"hidden" : 0,
					"midpoints" : [ 11.5, 313.0, 309.5, 313.0 ]
				}

			}
, 			{
				"patchline" : 				{
					"source" : [ "obj-6", 1 ],
					"destination" : [ "obj-9", 0 ],
					"hidden" : 0,
					"midpoints" : [  ]
				}

			}
, 			{
				"patchline" : 				{
					"source" : [ "obj-7", 0 ],
					"destination" : [ "obj-11", 0 ],
					"hidden" : 0,
					"midpoints" : [  ]
				}

			}
, 			{
				"patchline" : 				{
					"source" : [ "obj-11", 0 ],
					"destination" : [ "obj-6", 0 ],
					"hidden" : 0,
					"midpoints" : [  ]
				}

			}
, 			{
				"patchline" : 				{
					"source" : [ "obj-11", 1 ],
					"destination" : [ "obj-4", 0 ],
					"hidden" : 0,
					"midpoints" : [ 53.227272, 54.0, 78.5, 54.0 ]
				}

			}
, 			{
				"patchline" : 				{
					"source" : [ "obj-4", 0 ],
					"destination" : [ "obj-13", 0 ],
					"hidden" : 0,
					"midpoints" : [  ]
				}

			}
, 			{
				"patchline" : 				{
					"source" : [ "obj-13", 1 ],
					"destination" : [ "obj-15", 0 ],
					"hidden" : 0,
					"midpoints" : [  ]
				}

			}
, 			{
				"patchline" : 				{
					"source" : [ "obj-13", 0 ],
					"destination" : [ "obj-3", 0 ],
					"hidden" : 0,
					"midpoints" : [ 78.5, 313.0, 309.5, 313.0 ]
				}

			}
, 			{
				"patchline" : 				{
					"source" : [ "obj-15", 0 ],
					"destination" : [ "obj-3", 1 ],
					"hidden" : 0,
					"midpoints" : [ 92.5, 305.0, 323.0, 305.0 ]
				}

			}
, 			{
				"patchline" : 				{
					"source" : [ "obj-4", 1 ],
					"destination" : [ "obj-16", 0 ],
					"hidden" : 0,
					"midpoints" : [  ]
				}

			}
, 			{
				"patchline" : 				{
					"source" : [ "obj-4", 2 ],
					"destination" : [ "obj-17", 0 ],
					"hidden" : 0,
					"midpoints" : [  ]
				}

			}
, 			{
				"patchline" : 				{
					"source" : [ "obj-16", 1 ],
					"destination" : [ "obj-19", 0 ],
					"hidden" : 0,
					"midpoints" : [  ]
				}

			}
, 			{
				"patchline" : 				{
					"source" : [ "obj-17", 1 ],
					"destination" : [ "obj-21", 0 ],
					"hidden" : 0,
					"midpoints" : [  ]
				}

			}
, 			{
				"patchline" : 				{
					"source" : [ "obj-16", 0 ],
					"destination" : [ "obj-3", 0 ],
					"hidden" : 0,
					"midpoints" : [ 111.5, 313.5, 309.5, 313.5 ]
				}

			}
, 			{
				"patchline" : 				{
					"source" : [ "obj-17", 0 ],
					"destination" : [ "obj-3", 0 ],
					"hidden" : 0,
					"midpoints" : [ 144.5, 313.5, 309.5, 313.5 ]
				}

			}
, 			{
				"patchline" : 				{
					"source" : [ "obj-19", 0 ],
					"destination" : [ "obj-3", 1 ],
					"hidden" : 0,
					"midpoints" : [ 125.5, 305.0, 323.0, 305.0 ]
				}

			}
, 			{
				"patchline" : 				{
					"source" : [ "obj-21", 0 ],
					"destination" : [ "obj-3", 1 ],
					"hidden" : 0,
					"midpoints" : [ 158.5, 305.0, 323.0, 305.0 ]
				}

			}
 ]
	}

}
